<?xml version="1.0" encoding="UTF-8"?>
<svg id="Capa_1" xmlns="http://www.w3.org/2000/svg" version="1.1" viewBox="0 0 718 718">
  <defs>
    <style>
      .st0 {
        fill: #e3ae00;
      }

      .st1 {
        fill: #fcfcfc;
      }
    </style>
  </defs>
  <rect class="st0" width="718" height="718"/>
  <path class="st1" d="M319.45,462.33l-63.64-63.64c-11.71-11.71-30.71-11.71-42.43,0-10.35,10.35-11.01,26.12-3.07,37.8l-69.27,35.64c-4.14,2.07-7.09,5.93-8.01,10.47l-30.03,111.19,76.56-76.43c5.86-5.86,15.36-5.86,21.21,0,5.86,5.86,5.86,15.36,0,21.21l-76.56,76.43,111.33-29.9c4.54-.91,8.4-3.86,10.47-8.01l35.64-69.27c11.68,7.94,27.45,7.28,37.8-3.07,11.72-11.72,11.72-30.71,0-42.43Z"/>
  <path class="st1" d="M605.83,112.31c-41.87-41.87-173.04,66.97-243.95,137.88-46.99,46.99-71.46,79.75-94.19,117.95l82.69,82.69c15.89-8.46,29.36-15.85,51.46-33.95-20.6-23.49-19.94-59.44,2.46-81.84l95.46-95.46c5.94-5.94,15.27-5.94,21.21,0s5.94,15.27,0,21.21l-95.46,95.46c-11.67,11.67-11.67,30.76,0,42.43,11.67,11.67,30.76,11.67,42.43,0l95.46-95.46c21.44-21.44,27.46-53.67,16.28-81.23,35.36-54.47,44.36-91.48,26.15-109.69Z"/>
</svg>